<svg width="28" height="28" viewBox="0 0 28 28" fill="none" xmlns="http://www.w3.org/2000/svg">
<path fill-rule="evenodd" clip-rule="evenodd" d="M14.1511 25.0919C10.0401 25.0919 6.5293 24.4522 6.5293 21.8901C6.5293 19.3281 10.0178 16.9629 14.1511 16.9629C18.2622 16.9629 21.773 19.3052 21.773 21.8672C21.773 24.4282 18.2845 25.0919 14.1511 25.0919Z" stroke="#130F26" stroke-width="2.22712" stroke-linecap="round" stroke-linejoin="round"/>
<path fill-rule="evenodd" clip-rule="evenodd" d="M14.1433 13.4115C16.8412 13.4115 19.0278 11.225 19.0278 8.52711C19.0278 5.82925 16.8412 3.6416 14.1433 3.6416C11.4455 3.6416 9.25784 5.82925 9.25784 8.52711C9.24873 11.2158 11.4202 13.4025 14.1089 13.4115C14.121 13.4115 14.1321 13.4115 14.1433 13.4115Z" stroke="#130F26" stroke-width="2.22712" stroke-linecap="round" stroke-linejoin="round"/>
</svg>
